<svg width="162" height="156" viewBox="0 0 162 156" fill="none" xmlns="http://www.w3.org/2000/svg">
<path fill-rule="evenodd" clip-rule="evenodd" d="M100.106 75.6053C101.447 74.6327 103.343 74.9164 104.341 76.2389L159.429 149.239C160.427 150.561 160.148 152.422 158.807 153.395C157.466 154.367 155.569 154.084 154.571 152.761L99.4841 79.7611C98.486 78.4386 98.7644 76.578 100.106 75.6053Z" fill="black"/>
<path fill-rule="evenodd" clip-rule="evenodd" d="M83.7496 101.369C82.4221 100.377 82.1702 98.513 83.187 97.2048L99.5092 76.2048C100.526 74.8966 102.426 74.6399 103.754 75.6313C105.081 76.6228 105.333 78.487 104.316 79.7952L87.9942 100.795C86.9775 102.103 85.0771 102.36 83.7496 101.369Z" fill="black"/>
<path fill-rule="evenodd" clip-rule="evenodd" d="M87.1015 101.592C85.6559 102.402 83.8077 101.898 82.9733 100.466L58.49 58.4661C57.6556 57.0347 58.151 55.2179 59.5966 54.4082C61.0421 53.5985 62.8903 54.1025 63.7247 55.5339L88.208 97.5339C89.0424 98.9653 88.547 100.782 87.1015 101.592Z" fill="black"/>
<path fill-rule="evenodd" clip-rule="evenodd" d="M160 152C160 153.657 158.657 155 157 155L5 155C3.34315 155 2 153.657 2 152C2 150.343 3.34315 149 5 149L157 149C158.657 149 160 150.343 160 152Z" fill="black"/>
<path fill-rule="evenodd" clip-rule="evenodd" d="M62.2137 53.9271C63.6554 54.7436 64.1422 56.5626 63.3009 57.99L7.61042 152.478C6.76914 153.906 4.91842 154.401 3.47673 153.584C2.03503 152.768 1.5483 150.949 2.38959 149.522L58.08 55.0332C58.9213 53.6058 60.772 53.1106 62.2137 53.9271Z" fill="black"/>
<path fill-rule="evenodd" clip-rule="evenodd" d="M60.1477 61C58.4908 61 57.1477 59.6569 57.1477 58L57.1477 3C57.1477 1.34315 58.4908 0 60.1477 0C61.8045 0 63.1477 1.34315 63.1477 3L63.1477 58C63.1477 59.6569 61.8045 61 60.1477 61Z" fill="black"/>
<path fill-rule="evenodd" clip-rule="evenodd" d="M15.2014 3C15.2014 1.34315 16.5445 0 18.2014 0L60.1477 0C61.8045 0 63.1477 1.34315 63.1477 3C63.1477 4.65685 61.8045 6 60.1477 6L18.2014 6C16.5445 6 15.2014 4.65685 15.2014 3Z" fill="black"/>
<path fill-rule="evenodd" clip-rule="evenodd" d="M15.2014 22C15.2014 20.3431 16.5445 19 18.2014 19L60.1477 19C61.8045 19 63.1477 20.3431 63.1477 22C63.1477 23.6569 61.8045 25 60.1477 25L18.2014 25C16.5445 25 15.2014 23.6569 15.2014 22Z" fill="black"/>
<path fill-rule="evenodd" clip-rule="evenodd" d="M18.3222 25C16.6653 25 15.3222 23.6569 15.3222 22L15.3222 5C15.3222 3.34315 16.6653 2 18.3222 2C19.979 2 21.3222 3.34315 21.3222 5V22C21.3222 23.6569 19.979 25 18.3222 25Z" fill="black"/>
<path fill-rule="evenodd" clip-rule="evenodd" d="M114.842 116.836C113.532 117.85 111.627 117.626 110.588 116.336L99.0494 102.009C98.0102 100.718 98.2299 98.8501 99.5402 97.836C100.851 96.822 102.755 97.046 103.794 98.3364L115.333 112.664C116.372 113.954 116.153 115.822 114.842 116.836Z" fill="black"/>
<path fill-rule="evenodd" clip-rule="evenodd" d="M134.225 139.836C132.915 140.85 131.01 140.626 129.971 139.336L118.432 125.009C117.393 123.718 117.612 121.85 118.923 120.836C120.233 119.822 122.138 120.046 123.177 121.336L134.716 135.664C135.755 136.954 135.535 138.822 134.225 139.836Z" fill="black"/>
</svg>
